<svg xmlns="http://www.w3.org/2000/svg" width="512" height="512" fill="none" viewBox="0 0 512 512" id="quiz-competition"><path fill="#fff" d="M289.29 119.976C274.96 137.146 254.24 147.796 233.06 154.976 214.35 161.316 194.58 165.316 174.87 163.886 155.16 162.446 135.48 155.226 121.29 141.476 108.15 146.676 92.6 145.306 80.56 137.896 68.52 130.486 60.3 117.226 59 103.156L59.6 94.8062C74.14 107.856 94.94 113.586 114.1 109.806L114.45 102.666C112.43 84.3562 122.09 66.2062 135.92 54.0362 149.75 41.8562 167.27 34.7862 184.81 29.1562 205.95 22.3662 228.27 17.3062 250.23 20.5562 272.18 23.8062 293.77 36.8262 302.05 57.3962 310.41 78.1362 303.62 102.806 289.29 119.976zM126.099 283.113C119.649 283.003 113.169 284.693 107.589 287.923L106.299 285.813C105.089 283.593 103.939 281.323 102.859 279.033 100.959 274.983 99.2694 270.833 97.8194 266.613L96.3594 262.813C102.579 260.093 108.879 257.583 115.249 255.273L116.189 258.433C118.059 263.203 119.939 267.973 121.819 272.743 122.819 275.303 123.829 277.863 124.839 280.423L126.099 283.113zM148.079 350.181C147.269 351.421 145.859 352.131 144.499 352.731 141.519 354.041 138.409 355.051 135.239 355.761 134.059 356.021 132.779 356.231 131.639 355.791 129.989 355.141 129.169 353.331 128.509 351.681 127.699 349.661 126.889 347.651 126.079 345.631 124.879 342.641 123.669 339.641 122.459 336.631L114.859 314.141 118.139 317.851C118.469 318.931 119.119 319.881 119.929 320.651 119.539 324.131 120.479 328.101 120.479 328.101 121.179 331.721 124.529 334.431 128.139 335.191 128.239 335.211 128.349 335.231 128.449 335.251 127.529 337.481 127.889 339.611 127.889 339.611 127.949 342.181 129.869 344.441 132.229 345.461 134.579 346.481 137.279 346.441 139.799 345.921 142.229 345.441 144.609 344.511 146.699 343.181L147.689 346.151C148.899 347.031 148.909 348.941 148.079 350.181z"></path><path fill="#fff" d="M234.561 484.93C222.591 491.65 207.831 493.39 194.631 489.57 197.231 483.84 195.891 476.46 191.851 471.45 187.101 465.55 179.421 462.62 171.871 461.94 164.311 461.26 156.751 462.56 149.261 463.73 124.561 467.59 97.7208 469.76 75.9808 457.41 60.8908 448.84 49.8208 433.5 46.4308 416.48 43.6208 402.33 45.9508 387.55 50.7308 373.94 55.5108 360.32 62.6808 347.7 69.8008 335.15 79.8408 317.47 80.9808 301.77 99.9208 282.1L102.871 279C103.951 281.29 105.101 283.55 106.311 285.78L107.601 287.89C113.191 284.66 119.661 282.97 126.111 283.08L124.861 280.39C123.851 277.83 122.841 275.27 121.841 272.71L126.871 272.18C132.191 272.21 137.291 276 138.831 281.09L137.691 285.62C139.281 286.54 140.561 287.84 140.951 289.6 141.161 290.52 141.081 291.43 140.811 292.28L144.681 294.97C147.511 297.96 148.511 302.27 147.911 306.38V306.39L151.471 311.62C152.631 314.87 152.421 318.48 151.201 321.71L152.991 324.66C155.111 328.98 154.401 334.4 151.701 338.39 150.401 340.32 148.671 341.92 146.701 343.16V343.17C144.611 344.5 142.231 345.42 139.801 345.91 137.281 346.42 134.581 346.47 132.231 345.45 129.871 344.43 127.951 342.16 127.891 339.6 127.891 339.6 127.531 337.48 128.451 335.24 128.351 335.22 128.241 335.2 128.141 335.18 124.531 334.42 121.181 331.7 120.481 328.09 120.481 328.09 119.541 324.12 119.931 320.64 119.121 319.86 118.471 318.92 118.141 317.84L114.861 314.13 122.461 336.62C123.661 339.62 124.871 342.62 126.081 345.62L122.451 345.67C112.431 351.94 102.781 359.12 95.4108 368.35 88.0208 377.58 83.0108 389.1 83.2708 400.91 83.5308 412.74 89.6308 424.7 100.031 430.31 110.621 436.02 123.491 434.1 135.181 431.3 219.651 411.17 236.171 463.31 234.561 484.93zM154.501 237.56C153.541 243.06 147.121 245.41 141.741 246.87 132.801 249.29 123.971 252.1 115.261 255.27 108.891 257.58 102.591 260.09 96.3707 262.81 83.3907 268.46 70.7707 274.94 58.6107 282.21L54.0607 284.65C42.0007 269.39 32.0907 252.42 24.7207 234.41L26.1107 226.46C54.7707 205.71 87.4407 190.52 121.781 181.95 128.401 180.3 136.431 179.27 141.141 184.2 143.631 186.81 144.531 190.53 145.341 194.04 148.221 206.66 151.101 219.28 153.981 231.91 154.391 233.76 154.821 235.68 154.501 237.56zM246.609 337.287C246.619 338.537 246.619 339.777 246.599 341.027L246.469 342.977C242.709 342.967 238.889 343.667 235.329 344.877 232.879 345.707 230.529 346.767 228.249 347.977L228.449 345.607C228.519 344.007 228.549 342.407 228.559 340.807 228.669 333.957 228.369 327.117 227.699 320.307L227.829 318.477C233.929 318.537 240.039 318.647 246.129 318.817L245.959 321.177C246.369 326.537 246.589 331.917 246.609 337.287z"></path><path fill="#fff" d="M476.25 337.718C475.77 345.218 472.89 352.588 468.01 358.318C463.88 363.168 458.38 366.798 452.34 368.828C449.15 362.578 445.31 356.648 440.17 351.918C433.66 345.938 424.75 342.058 416 343.318C406.81 344.628 399.19 351.278 393.92 358.918C388.64 366.548 385.2 375.268 380.69 383.388C374.23 395.018 365.39 405.548 354.07 412.548C342.74 419.538 328.81 422.748 315.83 419.808C305.54 417.488 296.48 411.598 287.12 406.748C277.75 401.898 267.18 397.948 256.83 399.978L252.05 400.788C251.66 401.668 251.08 402.488 250.38 403.138C248.36 404.998 245.6 405.768 242.91 406.308C239.15 407.078 235.19 407.498 231.43 406.948C229.66 406.688 227.94 406.218 226.3 405.468C221.18 403.118 217.3 397.318 218.74 391.858L220.15 389.708C219.49 389.198 218.88 388.608 218.35 387.948C216.46 385.558 215.78 382.018 217.41 379.448L218.53 376.988C218.05 376.648 217.59 376.268 217.18 375.848C215.12 373.798 213.98 370.588 215.11 367.898L216.43 365.548C216.17 365.478 215.92 365.408 215.67 365.318C213.4 364.558 210.94 362.688 211.41 360.328C211.69 358.918 212.96 357.938 214.14 357.098C214.2 357.058 214.24 357.018 214.3 356.988L214.15 354.338C215.32 348.548 219.59 343.498 225.09 341.358L228.57 340.808C228.56 342.408 228.52 344.008 228.46 345.608L228.26 347.978C230.54 346.778 232.89 345.718 235.34 344.878C238.9 343.668 242.72 342.968 246.48 342.978L246.61 341.028C246.63 339.778 246.63 338.538 246.62 337.288L250.69 338.048C264.5 341.768 274.62 353.128 285.1 362.858C295.59 372.578 309.11 381.588 323.16 378.848C334.8 376.578 343.47 366.688 349.23 356.308C354.99 345.938 358.84 334.458 365.88 324.898C379.64 306.228 404.97 297.548 427.72 302.068C448.02 306.098 465.75 319.858 476.25 337.718Z"></path><path fill="#fff" d="M249.83 415.631C249.87 416.701 249.87 417.871 249.22 418.711 248.55 419.591 247.37 419.881 246.27 420.061 242.99 420.611 239.64 420.651 236.35 420.191 235.11 420.021 233.81 419.741 232.89 418.901 231.63 417.751 231.4 415.871 231.49 414.181 231.58 412.481 231.9 410.741 231.43 409.111V406.951C235.19 407.501 239.15 407.071 242.91 406.311 245.6 405.771 248.36 404.991 250.38 403.141L249.6 407.681C249.69 410.321 249.76 412.971 249.83 415.631zM295.38 258.13C258.03 252.24 219.85 251.67 182.36 256.44L178.52 260.73C179.5 280.23 180.5 299.71 181.48 319.21 196.92 318.59 212.39 318.36 227.84 318.48 233.94 318.54 240.05 318.65 246.14 318.82 261.28 319.23 276.42 320 291.53 321.13 291.53 321.13 296.57 324.79 296.43 316.54 296.07 297.06 295.73 277.59 295.38 258.13zM231.73 286.78C232.93 286.55 234.14 286.33 235.37 286.16 234.16 286.42 232.94 286.6 231.73 286.78zM336.35 228.323C333 230.283 329.99 232.913 327.5 235.903 325.99 237.693 324.66 239.583 323.44 241.563L321.99 240.073C320.83 237.983 319.64 235.913 318.41 233.873 315.28 228.683 311.89 223.653 308.25 218.813L306.98 217.453C312.44 214.203 317.94 211.013 323.47 207.883L324.33 210.113C327.27 214.243 330.09 218.473 332.75 222.793 333.56 224.113 334.36 225.433 335.15 226.763L336.35 228.323z"></path><path fill="#fff" d="M365.09 180.008L363.28 186.468C349.83 193.288 336.56 200.428 323.46 207.868 317.93 210.998 312.44 214.198 306.97 217.438 293.83 225.238 280.86 233.368 268.11 241.788 257.18 225.628 246.25 209.448 235.32 193.288L236.38 187.628C266.01 164.138 298.96 144.868 333.97 130.578 344.34 147.048 354.72 163.538 365.09 180.008zM377.591 291.858C377.471 292.958 376.611 293.818 375.771 294.538 373.251 296.698 370.401 298.478 367.341 299.788 366.191 300.278 364.941 300.728 363.721 300.478 362.051 300.148 360.881 298.648 360.071 297.158 359.271 295.658 358.641 294.018 357.401 292.848L356.381 290.968C359.851 289.488 362.981 287.108 365.771 284.528 367.371 283.048 368.931 281.428 369.901 279.508L372.201 282.228C373.641 284.458 375.071 286.688 376.511 288.918 377.101 289.808 377.701 290.798 377.591 291.858z"></path><path fill="#fff" d="M483.959 124.604C470.589 127.124 461.169 140.584 458.629 154.134C455.979 168.244 458.909 182.714 460.489 196.994C462.059 211.264 462.009 226.664 454.279 238.764C446.259 251.324 431.479 257.874 416.959 261.224C402.449 264.584 387.359 265.464 373.209 270.154L369.549 272.074C370.769 273.634 371.089 275.964 370.529 277.934C370.369 278.484 370.159 279.004 369.909 279.504C368.939 281.424 367.379 283.044 365.779 284.524C362.989 287.104 359.849 289.484 356.389 290.964C354.719 291.694 352.959 292.194 351.139 292.404C345.529 293.034 339.219 290.074 337.629 284.664L335.269 281.514C332.419 280.464 330.009 277.774 330.059 274.734V272.064C329.369 272.034 328.679 271.944 328.009 271.784C325.179 271.104 322.549 268.924 322.109 266.054L322.039 263.344C321.779 263.424 321.519 263.484 321.249 263.544C318.909 264.084 315.829 263.744 315.019 261.494C314.529 260.134 315.109 258.644 315.679 257.314C315.849 256.914 316.019 256.514 316.199 256.114L314.249 254.944C312.269 249.384 313.299 242.864 316.889 238.174L318.399 233.874C319.629 235.924 320.819 237.984 321.979 240.074L323.429 241.564C324.649 239.584 325.989 237.694 327.489 235.904C329.979 232.924 332.989 230.294 336.339 228.324L335.129 226.764C334.339 225.434 333.549 224.114 332.729 222.794L337.709 219.084C346.549 217.064 355.809 218.584 364.669 220.564C373.519 222.544 382.419 225.004 391.489 224.864C400.569 224.714 410.119 221.524 415.529 214.234C423.469 203.544 420.119 188.704 418.759 175.454C416.609 154.644 417.099 128.584 429.409 111.674C440.719 96.1537 462.529 82.9537 482.079 83.0237C487.849 95.9837 488.509 111.164 483.959 124.604Z"></path><path fill="#231F20" d="M58.0104 96.388C69.8604 106.948 85.4604 112.938 101.32 113.188C105.81 113.258 110.29 112.828 114.7 111.978C115.89 111.748 116.58 110.318 116.27 109.208C115.93 107.958 114.7 107.408 113.5 107.638C99.1704 110.408 83.9504 107.698 71.3004 100.478C67.6804 98.408 64.3004 95.988 61.1904 93.218C59.0404 91.288 55.8504 94.458 58.0104 96.388Z"></path><path fill="#231F20" d="M116.71 102.663C115.1 87.4425 121.61 72.6025 131.66 61.4225C142.45 49.4225 157.13 41.6825 172.02 35.9825C180.05 32.9125 188.26 30.2725 196.53 27.9725C205.22 25.5525 214.08 23.5625 223.06 22.5525C238.87 20.7725 255.22 21.9425 269.83 28.6325C282.39 34.3825 293.44 43.7825 299.25 56.5125C305.36 69.9125 304.3 85.4725 299.11 98.9725C293.66 113.163 283.38 124.882 271.15 133.702C258.26 142.993 243.49 149.353 228.41 154.143C211.23 159.603 193.19 162.932 175.11 161.652C159.69 160.562 144.34 155.833 131.56 147.003C128.47 144.873 125.59 142.483 122.89 139.883C122.35 139.363 121.44 139.013 120.7 139.303C110.36 143.333 98.81 143.303 88.46 139.323C78.88 135.643 71.01 128.273 66.19 119.263C63.53 114.283 61.8 108.773 61.26 103.143C61.14 101.933 60.31 100.893 59.01 100.893C57.88 100.893 56.64 101.923 56.76 103.143C57.83 114.323 62.79 124.922 70.71 132.902C79.04 141.302 90.35 146.132 102.14 146.762C108.84 147.122 115.64 146.073 121.89 143.633C121.16 143.443 120.43 143.243 119.7 143.053C131.5 154.423 146.89 161.513 162.89 164.553C180.85 167.963 199.36 166.333 217.02 162.012C233.49 157.982 249.88 151.982 264.52 143.363C278.34 135.223 290.86 124.232 298.78 110.133C306.37 96.6025 309.95 80.4525 306.74 65.1125C303.66 50.4125 294.02 38.1825 281.64 30.0125C268.33 21.2325 252.49 17.3625 236.65 17.2825C217.98 17.1925 199.6 21.9025 181.97 27.6925C165.78 33.0125 149.72 39.7025 136.44 50.6225C124.19 60.6925 114.62 75.0525 112.43 90.9725C111.9 94.8525 111.79 98.7525 112.2 102.643C112.33 103.853 113.14 104.893 114.45 104.893C115.57 104.913 116.83 103.873 116.71 102.663Z"></path><path fill="#231F20" d="M154.499 91.3827C148.479 96.2327 149.359 105.613 150.619 112.353C152.049 120.003 155.889 127.723 163.179 131.243C166.539 132.863 170.239 133.563 173.929 132.913C177.749 132.243 180.969 129.873 183.229 126.793C188.509 119.623 187.199 109.883 183.899 102.173C180.329 93.8227 172.449 86.4027 162.749 87.4127C161.539 87.5427 160.499 88.3527 160.499 89.6627C160.499 90.7827 161.529 92.0427 162.749 91.9127C169.669 91.1927 175.389 95.7327 178.599 101.523C181.839 107.393 183.949 115.613 180.889 121.963C179.649 124.543 177.659 126.873 174.949 127.963C172.249 129.053 169.279 128.793 166.589 127.823C160.489 125.633 157.069 119.713 155.529 113.733C154.629 110.233 154.139 106.533 154.269 102.913C154.379 99.7527 155.129 96.6027 157.689 94.5427C158.639 93.7827 158.479 92.1527 157.689 91.3627C156.749 90.4427 155.449 90.6127 154.499 91.3827Z"></path><path fill="#231F20" d="M175 117.339C181.61 119.839 188.23 122.339 194.84 124.829 195.98 125.259 197.31 124.349 197.61 123.259 197.96 121.999 197.18 120.919 196.04 120.489 189.43 117.989 182.81 115.489 176.2 112.999 175.06 112.569 173.73 113.479 173.43 114.569 173.08 115.839 173.86 116.909 175 117.339zM182.591 84.4021C185.501 90.1521 188.971 95.5921 192.921 100.682 196.441 105.222 200.441 110.402 205.851 112.752 208.481 113.892 211.461 114.262 214.211 113.262 216.881 112.292 219.051 110.312 220.501 107.892 223.801 102.382 222.671 95.7021 220.791 89.9221 218.551 83.0621 215.361 76.5121 211.361 70.5021 209.761 68.1021 205.861 70.3521 207.471 72.7721 210.591 77.4621 213.251 82.4621 215.251 87.7321 217.121 92.6521 219.331 98.6421 217.451 103.872 215.981 107.952 212.081 110.472 207.861 108.742 205.641 107.832 203.751 106.172 202.091 104.482 200.151 102.512 198.371 100.372 196.661 98.2021 192.731 93.2221 189.351 87.7921 186.481 82.1321 185.171 79.5521 181.291 81.8221 182.591 84.4021zM216.78 66.4069C221.36 78.4569 226.88 90.1269 233.33 101.287 234.78 103.797 238.67 101.527 237.22 99.0169 230.97 88.1969 225.57 76.8969 221.12 65.2169 220.69 64.0769 219.6 63.2969 218.35 63.6469 217.27 63.9369 216.35 65.2569 216.78 66.4069zM229.759 62.6396C236.029 60.0796 242.299 57.5196 248.559 54.9596 247.609 54.2396 246.659 53.5096 245.709 52.7896 247.439 66.3896 247.239 80.2296 244.979 93.7596 244.659 95.6896 246.439 97.2596 248.289 96.2996 256.459 92.0296 264.629 87.7696 272.809 83.4996 275.379 82.1596 273.109 78.2696 270.539 79.6096 262.369 83.8796 254.199 88.1396 246.019 92.4096 247.119 93.2596 248.219 94.0996 249.329 94.9496 251.659 81.0096 251.999 66.8096 250.219 52.7896 250.059 51.5196 248.879 49.9996 247.369 50.6196 241.099 53.1796 234.829 55.7396 228.569 58.2996 227.449 58.7596 226.649 59.7996 226.999 61.0696 227.279 62.1296 228.629 63.0996 229.759 62.6396zM101.941 295.103C107.021 289.963 113.771 286.673 120.921 285.663 124.371 285.173 127.981 285.223 131.411 285.893 133.811 286.363 138.251 287.253 138.761 290.233 139.351 293.633 134.831 295.473 132.301 296.123 128.431 297.113 124.531 297.673 121.251 300.143 115.611 304.383 113.031 311.373 111.431 318.013 109.631 325.533 108.581 334.213 102.291 339.493 101.361 340.273 101.481 341.873 102.291 342.673 103.211 343.593 104.541 343.453 105.471 342.673 111.721 337.433 113.571 329.083 115.251 321.503 116.681 315.043 118.611 307.043 124.631 303.263 128.381 300.913 133.061 301.083 137.031 299.243 140.741 297.523 143.901 293.683 143.161 289.403 142.471 285.453 138.641 283.213 135.101 282.173 131.271 281.043 127.111 280.683 123.141 280.953 114.011 281.573 105.201 285.413 98.7509 291.943 96.7209 293.983 99.9009 297.163 101.941 295.103z"></path><path fill="#231F20" d="M95.6493 267.188C97.9993 273.998 100.909 280.608 104.349 286.928 105.739 289.468 109.619 287.208 108.239 284.658 104.979 278.668 102.219 272.438 99.9893 265.988 99.5893 264.838 98.4493 264.078 97.2193 264.418 96.0993 264.728 95.2493 266.038 95.6493 267.188zM114.02 259.033C116.9 266.363 119.79 273.683 122.67 281.013 123.11 282.143 124.18 282.933 125.44 282.583 126.52 282.283 127.46 280.953 127.01 279.813 124.13 272.483 121.24 265.163 118.36 257.833 117.92 256.703 116.85 255.913 115.59 256.263 114.51 256.563 113.57 257.893 114.02 259.033zM126.859 274.461C127.169 274.461 127.489 274.481 127.799 274.501 127.869 274.511 128.439 274.591 128.099 274.531 127.749 274.471 128.239 274.561 128.309 274.571 128.929 274.681 129.529 274.841 130.119 275.051 130.279 275.111 130.439 275.171 130.599 275.231 130.999 275.381 130.359 275.111 130.609 275.241 130.889 275.381 131.179 275.511 131.459 275.651 132.019 275.951 132.539 276.291 133.049 276.661 133.399 276.911 132.859 276.501 133.069 276.671 133.179 276.761 133.289 276.851 133.399 276.941 133.659 277.161 133.909 277.401 134.149 277.641 134.349 277.841 134.549 278.051 134.729 278.271 134.839 278.401 134.949 278.531 135.059 278.661 135.359 279.021 134.839 278.331 135.119 278.751 135.449 279.251 135.779 279.741 136.059 280.281 136.129 280.411 136.189 280.531 136.249 280.661 136.299 280.761 136.349 280.871 136.389 280.971 136.359 280.901 136.329 280.821 136.299 280.751 136.469 280.881 136.579 281.521 136.639 281.721 136.989 282.841 138.219 283.671 139.409 283.291 140.539 282.931 141.359 281.731 140.979 280.521 139.079 274.441 133.229 270.041 126.849 269.961 125.669 269.951 124.549 271.011 124.599 272.211 124.659 273.441 125.599 274.441 126.859 274.461zM122.18 311.881C127.85 310.951 133.21 307.841 136.84 303.371 137.58 302.461 137.8 301.071 136.84 300.191 136.02 299.441 134.45 299.211 133.66 300.191 132.84 301.191 131.95 302.131 130.97 302.981 130.73 303.191 130.48 303.401 130.22 303.601 130.04 303.751 130.39 303.481 130.08 303.711 129.96 303.791 129.85 303.881 129.73 303.961 129.17 304.351 128.6 304.721 128.01 305.071 127.45 305.391 126.88 305.691 126.29 305.971 126.16 306.031 126.03 306.091 125.9 306.151 125.78 306.211 125.45 306.341 125.74 306.221 125.44 306.341 125.14 306.461 124.83 306.561 123.58 307.011 122.29 307.331 120.98 307.551 119.82 307.741 119.06 309.251 119.41 310.321 119.82 311.571 120.93 312.091 122.18 311.881z"></path><path fill="#231F20" d="M143.08 296.579C145.37 299.069 146.15 302.599 145.72 305.909C145.23 309.619 143.19 312.789 140.42 315.229C137.54 317.769 133.88 319.409 130.17 320.309C126.88 321.109 121.67 321.219 120.31 317.259C119.38 314.539 115.03 315.709 115.97 318.459C117.33 322.439 120.95 324.729 125.01 325.199C129.22 325.689 133.66 324.249 137.44 322.469C144.41 319.169 149.9 312.829 150.3 304.909C150.51 300.689 149.13 296.519 146.27 293.409C144.29 291.259 141.12 294.449 143.08 296.579Z"></path><path fill="#231F20" d="M118.301 328.708C119.021 332.018 121.451 334.788 124.451 336.268C128.041 338.028 132.121 338.049 135.931 337.029C142.861 335.189 149.811 330.448 152.771 323.738C154.541 319.738 155.031 315.219 153.611 311.029C152.691 308.299 148.341 309.469 149.271 312.229C151.811 319.739 146.771 326.749 140.431 330.319C137.131 332.179 133.131 333.679 129.281 333.139C126.181 332.699 123.311 330.669 122.621 327.509C122.031 324.679 117.691 325.878 118.301 328.708Z"></path><path fill="#231F20" d="M125.639 339.613C125.899 344.213 129.639 347.633 134.069 348.323C138.459 349.013 143.139 347.803 146.979 345.643C154.709 341.283 158.829 331.873 154.929 323.543C154.409 322.443 152.829 322.163 151.849 322.733C150.719 323.393 150.529 324.703 151.039 325.813C153.749 331.603 150.459 338.233 145.359 341.373C142.699 343.013 139.509 344.063 136.369 344.033C133.739 344.013 130.309 342.683 130.139 339.613C129.969 336.743 125.469 336.723 125.639 339.613Z"></path><path fill="#231F20" d="M120.29 337.24C122.13 341.8 123.96 346.36 125.8 350.92C126.53 352.73 127.17 354.62 128.44 356.13C129.84 357.81 131.91 358.48 134.05 358.24C138.3 357.76 142.87 356.15 146.67 354.21C148.44 353.3 150.11 351.89 150.68 349.92C151.22 348.06 150.83 345.87 149.29 344.59C148.36 343.81 147.02 343.67 146.11 344.59C145.31 345.39 145.17 346.99 146.11 347.77C147.84 349.21 142.75 351.08 141.98 351.38C140.32 352.03 138.63 352.58 136.91 353.05C135.69 353.38 133.91 354.12 132.63 353.76C131.67 353.49 131.18 352.26 130.82 351.43C130.11 349.82 129.51 348.17 128.85 346.54C127.44 343.05 126.04 339.55 124.63 336.06C124.18 334.93 123.13 334.14 121.86 334.49C120.79 334.76 119.83 336.1 120.29 337.24Z"></path><path fill="#231F20" d="M121.32 343.729C109.07 351.419 97.2201 360.519 89.4101 372.909C82.1201 384.479 78.5901 398.969 82.9501 412.269C84.9201 418.269 88.3101 423.909 93.0601 428.129C98.2601 432.749 104.66 435.259 111.53 436.019C118.66 436.799 125.91 435.679 132.87 434.159C139.43 432.719 145.94 431.209 152.61 430.279C162.77 428.859 173.55 428.459 183.55 429.929C187.77 430.549 191.94 431.499 195.99 432.829C199.62 434.029 202.49 435.259 205.9 437.149C207.41 437.989 208.87 438.889 210.29 439.859C210.98 440.329 211.65 440.819 212.32 441.319C212.64 441.559 212.41 441.379 212.49 441.449C212.64 441.569 212.8 441.689 212.95 441.809C213.28 442.069 213.61 442.339 213.93 442.609C216.34 444.629 218.56 446.869 220.56 449.289C220.79 449.569 221.01 449.849 221.24 450.129C221.29 450.189 221.61 450.599 221.45 450.389C221.3 450.189 221.64 450.649 221.71 450.729C222.15 451.319 222.58 451.909 223 452.519C223.81 453.699 224.58 454.919 225.3 456.159C226 457.369 226.65 458.599 227.25 459.859C227.54 460.469 227.83 461.089 228.1 461.719C228.16 461.869 228.23 462.019 228.29 462.169C228.14 461.819 228.22 461.999 228.31 462.229C228.44 462.549 228.57 462.869 228.7 463.199C229.64 465.609 230.41 468.079 231.02 470.589C231.3 471.749 231.54 472.929 231.75 474.109C231.85 474.679 231.93 475.249 232.02 475.819C232.09 476.279 231.99 475.619 232.01 475.759C232.03 475.889 232.04 476.029 232.06 476.159C232.09 476.449 232.13 476.729 232.16 477.019C232.38 479.049 232.48 481.089 232.43 483.129C232.41 484.039 232.35 484.949 232.26 485.849C232.24 486.049 232.21 486.249 232.19 486.439C232.13 487.029 232.28 485.909 232.17 486.559C232.11 486.939 232.05 487.309 231.98 487.689C231.85 488.349 231.69 488.999 231.5 489.639C230.64 492.409 234.99 493.599 235.84 490.839C236.86 487.519 237.03 483.889 236.91 480.439C236.73 475.689 235.91 470.929 234.54 466.369C231.09 454.839 224.15 444.659 214.52 437.409C200.92 427.169 183.29 424.099 166.62 424.619C160.73 424.799 154.86 425.419 149.04 426.329C142.48 427.349 136.09 428.989 129.59 430.299C122.84 431.659 115.68 432.519 108.86 431.129C102.53 429.839 97.0701 426.539 92.9601 421.569C84.6101 411.459 83.9001 397.449 88.2201 385.499C93.0701 372.059 103.55 361.589 114.95 353.429C117.77 351.409 120.67 349.499 123.6 347.659C126.04 346.079 123.78 342.189 121.32 343.729Z"></path><path fill="#231F20" d="M98.3095 280.531C90.5695 288.611 84.3595 297.771 79.7095 307.941 75.8295 316.411 72.7495 325.231 68.1995 333.391 56.0195 355.251 42.9695 377.931 42.9395 403.731 42.9295 415.051 45.7595 426.191 51.4395 436.001 56.6395 444.981 64.0395 452.711 72.8595 458.191 92.6795 470.511 117.219 470.221 139.569 467.361 145.689 466.581 151.759 465.471 157.869 464.691 163.869 463.921 170.079 463.521 176.029 464.851 180.969 465.951 185.729 468.141 189.229 471.881 192.469 475.341 194.189 480.271 193.589 484.991 193.329 487.081 192.549 489.201 191.239 490.861 190.489 491.821 190.309 493.111 191.239 494.041 192.019 494.821 193.669 495.001 194.419 494.041 201.199 485.391 198.119 472.881 189.869 466.381 180.299 458.831 167.799 458.841 156.289 460.401 144.459 462.011 132.759 464.071 120.799 464.441 109.569 464.781 98.2195 463.841 87.5295 460.181 67.6395 453.361 52.4295 436.151 48.4595 415.441 43.6495 390.321 55.2195 365.781 67.1095 344.421 69.8495 339.511 72.7495 334.681 75.1595 329.601 77.1695 325.371 78.9295 321.031 80.7295 316.711 84.5795 307.501 89.0095 298.581 95.2695 290.741 97.2195 288.301 99.2895 285.971 101.449 283.711 103.499 281.621 100.319 278.431 98.3095 280.531zM22.5509 235.009C28.4109 249.279 35.7409 262.919 44.5509 275.589 47.0809 279.219 49.7209 282.769 52.4609 286.239 53.2109 287.199 54.8509 287.029 55.6409 286.239 56.5809 285.299 56.3909 284.019 55.6409 283.059 46.4309 271.369 38.5109 258.659 32.0209 245.269 30.1909 241.499 28.4809 237.679 26.8909 233.809 26.4309 232.689 25.4009 231.889 24.1209 232.239 23.0609 232.529 22.0909 233.879 22.5509 235.009zM59.7409 284.146C76.9109 273.896 94.9809 265.176 113.731 258.206 123.121 254.716 132.671 251.686 142.341 249.026 146.101 247.996 149.921 246.706 152.961 244.196 156.611 241.186 157.331 236.946 156.401 232.476 154.191 221.776 151.541 211.136 149.111 200.486 148.031 195.736 147.331 190.606 145.191 186.176 143.321 182.306 139.781 179.636 135.591 178.776 131.471 177.926 127.211 178.446 123.131 179.326 118.541 180.316 113.991 181.636 109.491 182.966 100.201 185.716 91.0508 188.966 82.1008 192.676 64.1409 200.116 46.9509 209.346 30.9109 220.326 28.9109 221.696 26.9308 223.086 24.9708 224.506 23.9908 225.216 23.5109 226.466 24.1609 227.586 24.7309 228.556 26.2508 229.106 27.2408 228.396 42.4209 217.426 58.6908 207.996 75.7509 200.286 84.2009 196.466 92.8608 193.096 101.651 190.156 106.111 188.666 110.601 187.296 115.131 186.036 119.211 184.896 123.361 183.646 127.581 183.086 131.091 182.616 135.051 182.596 138.121 184.596 141.521 186.816 142.371 191.206 143.211 194.896 145.571 205.256 147.931 215.606 150.301 225.966 150.871 228.456 151.471 230.946 152.001 233.456 152.411 235.376 152.611 237.326 151.561 239.076 149.891 241.846 146.301 243.136 143.381 244.056 139.011 245.426 134.561 246.536 130.191 247.886 125.551 249.316 120.941 250.856 116.371 252.486 98.1808 258.986 80.5409 267.066 63.7509 276.606 61.6409 277.806 59.5408 279.036 57.4608 280.276 54.9809 281.736 57.2409 285.636 59.7409 284.146z"></path><path fill="#231F20" d="M83.0391 249.837C82.9591 243.637 82.8691 237.437 82.7891 231.237C82.7491 228.177 82.7091 225.117 82.6691 222.067C82.6491 220.577 82.6291 219.087 82.6091 217.607C82.5991 216.777 82.5891 215.957 82.5791 215.127C82.5791 214.807 82.6091 214.457 82.5691 214.137C82.4891 213.517 82.6791 213.817 82.4991 213.977C82.1691 214.167 81.8391 214.367 81.5091 214.557C81.0191 214.347 80.9291 214.327 81.2291 214.497C81.3391 214.547 81.4291 214.617 81.5091 214.717C81.7291 214.907 81.9391 215.127 82.1391 215.327C82.7191 215.887 83.2891 216.457 83.8591 217.027C84.9391 218.117 86.0091 219.237 87.0591 220.367C89.0991 222.577 91.0591 224.857 92.9391 227.207C96.7191 231.917 100.119 236.937 103.179 242.137C104.649 244.627 108.539 242.367 107.069 239.867C101.919 231.107 95.7591 222.927 88.7291 215.587C87.9191 214.737 87.0991 213.897 86.2591 213.077C85.3591 212.187 84.4591 211.147 83.3391 210.517C80.6591 209.017 78.2291 211.047 78.0791 213.817C77.9291 216.547 78.1491 219.347 78.1891 222.077C78.2291 224.887 78.2691 227.697 78.2991 230.507C78.3891 236.957 78.4791 243.397 78.5591 249.847C78.5791 252.737 83.0791 252.737 83.0391 249.837Z"></path><path fill="#231F20" d="M82.8697 237.572C87.0797 235.382 91.2897 233.202 95.4897 231.012 96.5397 230.472 96.9297 228.922 96.2997 227.932 95.6097 226.862 94.3397 226.542 93.2197 227.122 89.0097 229.312 84.7997 231.492 80.5997 233.682 79.5497 234.222 79.1597 235.772 79.7897 236.762 80.4797 237.832 81.7497 238.152 82.8697 237.572zM260.201 344.333C252.201 339.603 242.191 339.943 233.681 343.103 229.101 344.803 224.821 347.163 220.731 349.823 218.671 351.163 216.651 352.583 214.641 354.003 212.861 355.273 210.681 356.503 209.681 358.543 207.401 363.193 212.131 366.773 216.131 367.813 220.991 369.073 225.951 368.363 230.441 366.213 232.421 365.263 234.381 364.003 236.581 363.663 238.541 363.363 240.351 364.083 241.951 365.173 245.571 367.633 248.011 371.803 250.431 375.353 256.011 383.543 263.631 393.283 274.801 392.193 276.011 392.073 277.051 391.243 277.051 389.943 277.051 388.823 276.021 387.573 274.801 387.693 266.271 388.533 260.091 381.423 255.691 375.083 251.391 368.893 246.201 358.933 237.411 359.093 232.991 359.173 229.601 362.183 225.511 363.353 223.501 363.933 221.411 364.103 219.331 363.863 217.641 363.673 215.671 363.243 214.351 362.093 213.111 361.013 213.781 360.203 214.911 359.323 216.611 358.003 218.441 356.803 220.211 355.583 223.891 353.053 227.671 350.663 231.721 348.773 239.831 344.973 249.871 343.473 257.921 348.233 260.431 349.693 262.691 345.803 260.201 344.333z"></path><path fill="#231F20" d="M227.709 370.072C233.599 371.672 239.769 371.802 245.729 370.542C246.919 370.292 247.609 368.892 247.299 367.772C246.959 366.542 245.719 365.952 244.529 366.202C239.359 367.302 233.999 367.112 228.899 365.732C227.729 365.412 226.449 366.132 226.129 367.302C225.819 368.472 226.529 369.752 227.709 370.072Z"></path><path fill="#231F20" d="M212.94 367.311C211.35 371.521 213.59 376.061 216.98 378.621C220.64 381.381 225.55 382.421 230 383.061C237.3 384.111 248.93 384.881 253.13 377.171C254.51 374.631 250.63 372.351 249.24 374.901C247.86 377.431 245.04 378.381 242.34 378.831C238.82 379.421 235.04 379.221 231.52 378.771C228 378.321 224.1 377.601 220.97 375.871C218.33 374.411 216.09 371.651 217.27 368.511C217.7 367.371 216.79 366.041 215.7 365.741C214.45 365.391 213.37 366.171 212.94 367.311Z"></path><path fill="#231F20" d="M215.481 378.321C213.611 381.511 214.011 385.651 216.101 388.651C218.321 391.841 221.821 393.661 225.441 394.821C229.461 396.101 233.781 396.652 237.991 396.452C242.091 396.262 246.421 395.502 250.121 393.672C253.961 391.772 256.921 387.591 255.581 383.191C254.741 380.431 250.401 381.602 251.241 384.392C252.331 387.992 247.991 389.942 245.261 390.732C241.271 391.892 237.101 392.231 232.961 391.821C229.261 391.451 225.241 390.481 222.121 388.381C219.681 386.741 217.701 383.441 219.371 380.591C220.841 378.081 216.951 375.821 215.481 378.321Z"></path><path fill="#231F20" d="M216.589 391.273C214.759 398.793 220.269 405.773 227.109 408.213 230.969 409.593 235.229 409.673 239.249 409.173 243.069 408.703 247.389 408.073 250.609 405.813 254.139 403.323 256.169 398.583 253.859 394.583 252.409 392.073 248.519 394.343 249.969 396.853 251.769 399.963 247.849 402.573 245.369 403.373 241.639 404.573 237.499 405.123 233.589 404.923 229.959 404.733 226.349 403.603 223.759 400.973 221.559 398.753 220.159 395.613 220.919 392.473 221.609 389.663 217.269 388.463 216.589 391.273zM216.321 354.941C216.461 354.261 216.641 353.581 216.871 352.921 216.991 352.561 217.131 352.201 217.271 351.851 217.151 352.141 217.221 351.961 217.311 351.781 217.381 351.641 217.441 351.491 217.511 351.351 217.821 350.721 218.161 350.121 218.541 349.531 218.751 349.211 218.971 348.901 219.191 348.591 219.431 348.251 219.081 348.721 219.241 348.521 219.361 348.371 219.481 348.221 219.601 348.081 220.051 347.551 220.531 347.041 221.041 346.561 221.291 346.321 221.551 346.091 221.821 345.861 221.971 345.741 222.111 345.621 222.261 345.501 222.011 345.701 222.181 345.561 222.331 345.451 222.891 345.041 223.481 344.661 224.091 344.321 224.391 344.151 224.701 343.991 225.021 343.841 225.191 343.761 225.361 343.681 225.541 343.601 225.981 343.401 225.211 343.731 225.701 343.531 226.791 343.101 227.671 342.011 227.271 340.761 226.931 339.701 225.671 338.721 224.501 339.191 218.261 341.661 213.381 347.111 211.991 353.741 211.751 354.891 212.331 356.231 213.561 356.511 214.681 356.761 216.061 356.171 216.321 354.941z"></path><path fill="#231F20" d="M225.449 320.312C226.279 328.722 226.529 337.172 226.209 345.612 226.099 348.512 230.599 348.502 230.709 345.612 231.039 337.172 230.789 328.722 229.949 320.312 229.829 319.102 228.999 318.062 227.699 318.062 226.569 318.062 225.329 319.092 225.449 320.312zM243.71 321.18C244.2 327.78 244.41 334.4 244.34 341.02 244.31 343.92 248.81 343.92 248.84 341.02 248.91 334.4 248.7 327.78 248.21 321.18 248.12 319.97 247.24 318.93 245.96 318.93 244.82 318.93 243.62 319.96 243.71 321.18z"></path><path fill="#231F20" d="M250.09 340.219C259.5 342.809 267.16 349.089 274.18 355.609C281.71 362.609 288.85 370.089 297.77 375.369C306.53 380.549 317.04 383.459 327.01 380.159C336.17 377.129 343.2 369.919 348.39 362.029C354.22 353.169 357.76 343.059 362.89 333.809C367.5 325.489 373.61 318.379 381.6 313.169C396.73 303.299 415.98 300.559 433.26 305.779C450.77 311.069 465.63 323.759 474.69 339.509C475.81 341.459 476.84 343.449 477.79 345.489C478.3 346.589 479.89 346.869 480.87 346.299C482 345.639 482.19 344.329 481.68 343.219C473.8 326.329 459.79 312.039 442.67 304.509C434.02 300.709 424.73 298.599 415.26 298.649C405.94 298.699 396.7 300.739 388.18 304.499C379.83 308.179 372.18 313.719 366.31 320.729C359.35 329.039 355.28 339.089 350.59 348.739C346.42 357.329 341.38 366.099 333.47 371.799C329.8 374.439 325.61 376.359 321.09 376.929C316.08 377.559 311.06 376.549 306.41 374.709C287.25 367.109 276.75 347.159 258.24 338.499C255.99 337.449 253.66 336.559 251.26 335.899C248.49 335.109 247.29 339.449 250.09 340.219Z"></path><path fill="#231F20" d="M257.43 402.152C265.96 400.552 274.65 403.272 282.32 406.872 290.01 410.482 297.16 415.132 304.97 418.502 312.71 421.842 320.83 423.632 329.29 423.012 337.54 422.402 345.6 419.882 352.83 415.882 366.91 408.092 377.27 395.072 384.55 380.962 388.44 373.422 391.8 365.492 396.89 358.642 401.17 352.882 407.08 347.762 414.17 345.972 421.67 344.082 429.42 346.632 435.55 351.022 442.01 355.642 446.55 362.522 450.16 369.472 451.1 371.282 451.98 373.122 452.83 374.982 453.34 376.082 454.93 376.362 455.91 375.792 457.04 375.132 457.23 373.822 456.72 372.712 453.26 365.162 449.16 357.752 443.29 351.792 437.56 345.972 430.07 341.792 421.87 340.962 413.92 340.152 406.41 343.332 400.4 348.362 394.08 353.652 389.72 360.782 386 368.032 382.13 375.562 378.65 383.242 373.82 390.222 369.36 396.682 363.95 402.672 357.65 407.382 344.45 417.262 327.31 421.622 311.4 416.192 294.92 410.572 281.06 397.322 262.85 397.172 260.63 397.152 258.43 397.392 256.25 397.792 255.06 398.012 254.38 399.462 254.68 400.562 255.01 401.832 256.23 402.372 257.43 402.152zM229.279 409.711C229.609 411.061 229.359 412.471 229.269 413.841 229.189 415.091 229.239 416.401 229.599 417.601 230.469 420.511 232.889 421.951 235.759 422.361 238.849 422.801 241.959 422.881 245.049 422.491 247.979 422.121 251.259 421.401 251.929 417.991 252.239 416.391 252.059 414.711 252.009 413.101 251.959 411.291 251.909 409.481 251.859 407.671 251.779 404.781 247.279 404.771 247.359 407.671 247.409 409.361 247.459 411.051 247.499 412.731 247.539 414.031 247.749 415.561 247.589 416.791 247.519 417.331 247.509 417.381 247.029 417.581 246.629 417.751 245.859 417.851 245.339 417.931 243.839 418.161 242.309 418.241 240.799 418.241 239.329 418.241 237.839 418.171 236.389 417.921 235.399 417.751 234.419 417.491 234.069 416.741 233.639 415.831 233.719 414.641 233.809 413.481 233.929 411.791 234.049 410.161 233.629 408.491 232.919 405.701 228.579 406.891 229.279 409.711zM176.26 260.731C177.25 280.221 178.23 299.711 179.22 319.201 179.28 320.381 180.2 321.501 181.47 321.451 210.06 320.331 238.69 320.461 267.26 321.871 275.35 322.271 283.44 322.771 291.52 323.371 292.73 323.461 293.77 322.271 293.77 321.121 293.77 319.831 292.74 318.961 291.52 318.871 262.99 316.751 234.37 315.881 205.77 316.291 197.67 316.411 189.57 316.631 181.47 316.941 182.22 317.691 182.97 318.441 183.72 319.191 182.73 299.701 181.75 280.211 180.76 260.721 180.61 257.851 176.11 257.831 176.26 260.731zM182.349 258.687C211.449 255.007 240.939 254.497 270.159 257.217 278.399 257.987 286.609 259.007 294.779 260.297 294.229 259.577 293.679 258.847 293.129 258.127 293.479 277.597 293.819 297.067 294.169 316.537 294.219 319.427 298.719 319.437 298.669 316.537 298.319 297.067 297.979 277.597 297.629 258.127 297.609 257.227 296.949 256.107 295.979 255.957 266.629 251.347 236.819 249.917 207.169 251.817 198.879 252.347 190.599 253.147 182.359 254.187 181.149 254.337 180.109 255.107 180.109 256.437 180.099 257.537 181.139 258.837 182.349 258.687zM348.52 222.539C339.24 222.629 330.86 228.049 325.22 235.149 322.14 239.019 319.67 243.289 317.53 247.749 316.45 249.999 315.44 252.279 314.45 254.559 313.43 256.919 312.05 259.449 312.87 262.089 314.23 266.479 319.79 266.469 323.35 265.299 327.75 263.859 331.42 260.989 334.02 257.169 336.24 253.899 337.93 249.949 342.45 249.789 347.08 249.619 351.61 252.019 355.7 253.889 360.78 256.209 365.86 258.519 371.46 259.179 376.39 259.769 381.69 258.959 385.73 255.929 386.7 255.199 387.2 253.979 386.54 252.849 385.98 251.889 384.44 251.309 383.46 252.039 376.55 257.209 367.53 254.289 360.44 251.109 353.11 247.829 342.77 241.679 335.32 247.909 332.36 250.379 331.1 254.209 328.46 256.949 326.14 259.349 322.34 261.779 318.85 261.479 318.41 261.439 317.8 261.369 317.45 261.079 316.85 260.579 317.17 259.759 317.38 259.109 318.08 257.019 319.12 254.989 320.02 252.979 321.85 248.919 323.85 244.909 326.31 241.199 331.29 233.709 339.1 227.099 348.52 227.009 351.41 227.009 351.42 222.509 348.52 222.539z"></path><path fill="#231F20" d="M334 261.383C339.84 259.713 345.21 256.653 349.63 252.493C350.52 251.663 350.47 250.153 349.63 249.313C348.75 248.433 347.34 248.483 346.45 249.313C342.6 252.923 337.89 255.583 332.8 257.043C331.63 257.373 330.9 258.633 331.23 259.813C331.55 260.983 332.82 261.723 334 261.383Z"></path><path fill="#231F20" d="M319.939 266.654C320.669 270.654 324.429 273.514 328.299 274.124C333.009 274.864 337.849 273.304 342.169 271.524C346.339 269.814 350.399 267.644 353.879 264.764C357.009 262.184 359.609 258.554 359.419 254.324C359.289 251.444 354.789 251.424 354.919 254.324C355.059 257.444 352.839 259.864 350.539 261.704C347.769 263.924 344.479 265.674 341.229 267.064C337.979 268.454 334.269 269.824 330.689 269.824C327.839 269.824 324.809 268.494 324.249 265.444C324.029 264.244 322.579 263.574 321.479 263.874C320.249 264.224 319.719 265.454 319.939 266.654Z"></path><path fill="#231F20" d="M327.811 274.727C327.861 278.437 330.311 281.737 333.641 283.257C337.551 285.047 341.991 284.547 346.021 283.427C353.411 281.357 360.961 276.707 365.251 270.207C367.631 266.607 368.191 261.347 364.691 258.217C362.541 256.287 359.341 259.467 361.511 261.397C364.321 263.917 361.711 267.807 359.761 269.917C357.111 272.797 353.961 275.147 350.461 276.907C347.081 278.617 343.111 279.977 339.281 279.947C336.221 279.927 332.351 278.297 332.301 274.727C332.281 271.837 327.781 271.827 327.811 274.727Z"></path><path fill="#231F20" d="M335.46 285.27C337.74 292.55 345.89 295.71 352.95 294.39 356.92 293.64 360.57 291.59 363.74 289.16 366.97 286.69 370.5 283.77 372.15 279.95 373.82 276.1 373.07 271.01 369.12 268.85 366.58 267.46 364.3 271.35 366.85 272.74 369.94 274.43 368.19 278.57 366.5 280.58 363.87 283.69 360.39 286.45 356.77 288.32 353.59 289.96 349.98 290.78 346.47 289.84 343.51 289.04 340.74 287.12 339.79 284.09 338.94 281.32 334.59 282.49 335.46 285.27zM316.429 254.34C315.559 251.84 315.259 249.121 315.679 246.691 316.169 243.891 317.119 241.591 318.849 239.301 319.579 238.331 318.999 236.781 318.039 236.221 316.889 235.551 315.699 236.05 314.959 237.03 311.049 242.21 309.959 249.41 312.089 255.53 312.489 256.68 313.629 257.441 314.859 257.101 315.969 256.801 316.829 255.49 316.429 254.34z"></path><path fill="#231F20" d="M306.3 219.95C311.36 226.71 315.95 233.81 320.04 241.21 321.44 243.75 325.33 241.48 323.93 238.94 319.84 231.55 315.25 224.44 310.19 217.68 309.46 216.71 308.25 216.21 307.11 216.87 306.15 217.43 305.57 218.97 306.3 219.95zM322.381 211.239C326.221 216.629 329.831 222.189 333.191 227.889 334.661 230.379 338.551 228.119 337.081 225.619 333.711 219.919 330.111 214.359 326.271 208.969 325.571 207.979 324.311 207.509 323.191 208.159 322.211 208.729 321.671 210.239 322.381 211.239zM355.82 294.439C356.97 295.579 357.49 297.169 358.28 298.559 359.1 299.999 360.24 301.389 361.75 302.139 365.32 303.929 369.54 301.469 372.59 299.609 374.17 298.649 375.67 297.549 377.09 296.359 378.56 295.129 379.86 293.569 379.85 291.549 379.84 289.619 378.6 287.989 377.6 286.439 376.45 284.659 375.3 282.869 374.15 281.089 372.59 278.659 368.69 280.919 370.26 283.359 371.19 284.809 372.13 286.259 373.06 287.709 373.49 288.379 373.92 289.049 374.35 289.719 374.65 290.189 375.18 290.809 375.29 291.379 375.44 292.189 374.19 292.949 373.63 293.409 372.49 294.339 371.27 295.169 370.01 295.919 368.81 296.629 367.56 297.309 366.27 297.829 365.37 298.189 364.34 298.599 363.49 297.979 362.49 297.249 361.97 295.959 361.43 294.889 360.77 293.569 360.05 292.309 358.99 291.269 356.94 289.219 353.76 292.399 355.82 294.439z"></path><path fill="#231F20" d="M233.381 194.429C244.311 210.599 255.251 226.759 266.181 242.929 266.831 243.889 268.191 244.439 269.261 243.739 293.141 227.979 317.701 213.279 342.881 199.699 350.011 195.849 357.201 192.099 364.421 188.429 367.001 187.119 364.731 183.229 362.151 184.539 336.641 197.489 311.711 211.559 287.451 226.719 280.581 231.009 273.761 235.399 266.991 239.859 268.021 240.129 269.041 240.399 270.071 240.669 259.141 224.499 248.201 208.339 237.271 192.169 235.651 189.769 231.751 192.019 233.381 194.429zM237.98 189.219C260.9 171.059 285.86 155.459 312.18 142.729 319.54 139.169 327 135.839 334.57 132.739 333.72 132.399 332.88 132.049 332.03 131.709 342.4 148.189 352.78 164.669 363.15 181.149 364.69 183.589 368.58 181.339 367.04 178.879 356.67 162.399 346.29 145.919 335.92 129.439 335.44 128.679 334.3 128.029 333.38 128.409 305.8 139.689 279.48 153.939 255.04 170.979 248.14 175.789 241.4 180.819 234.81 186.049 233.86 186.809 234.02 188.439 234.81 189.229 235.74 190.159 237.02 189.979 237.98 189.219zM222.799 270.288C223.259 281.388 223.719 292.498 224.169 303.598 224.289 306.488 228.789 306.498 228.669 303.598 228.209 292.498 227.749 281.388 227.299 270.288 227.179 267.398 222.679 267.388 222.799 270.288z"></path><path fill="#231F20" d="M226.6 271.937C230.1 270.897 233.82 270.587 237.42 271.287 239.8 271.747 242.96 272.727 243.77 275.327 244.51 277.687 242.85 280.277 241.01 281.627 238.21 283.677 234.46 284.107 231.13 284.597 231.53 286.047 231.93 287.487 232.33 288.937 235.57 288.317 239.29 287.527 242.4 289.037 244.96 290.277 246.11 292.697 245.11 295.417 242.98 301.177 235.47 303.417 229.97 302.067 227.16 301.377 225.96 305.717 228.77 306.407 236.79 308.377 247.39 304.597 249.66 295.917 250.78 291.637 248.83 287.427 244.98 285.317 240.66 282.947 235.74 283.717 231.12 284.597 229.93 284.827 229.24 286.257 229.55 287.367 229.9 288.657 231.11 289.117 232.32 288.937 236.66 288.297 241.16 287.477 244.57 284.497 247.41 282.027 249.21 277.857 248.1 274.117 246.96 270.257 243.24 268.047 239.53 267.137 234.9 265.997 229.95 266.227 225.39 267.577 222.63 268.417 223.81 272.767 226.6 271.937zM297.529 171.049C290.119 175.189 284.349 183.819 287.509 192.499 290.559 200.859 300.429 203.509 308.249 200.439 313.099 198.539 317.059 195.099 320.429 191.199 322.319 189.019 319.149 185.819 317.249 188.019 312.889 193.069 306.819 198.159 299.649 197.079 296.609 196.619 293.809 195.059 292.319 192.299 290.799 189.489 290.849 185.909 292.049 182.999 293.519 179.449 296.509 176.769 299.799 174.929 302.329 173.519 300.069 169.629 297.529 171.049zM373.811 272.317C388.941 267.347 404.991 266.697 420.351 262.697 432.921 259.427 445.731 253.617 453.901 243.137 462.871 231.637 464.281 216.667 463.261 202.587 462.111 186.627 457.721 170.357 460.871 154.367 463.071 143.207 470.131 131.287 481.471 127.547 482.821 127.097 484.231 126.747 485.651 126.567 486.861 126.417 487.901 125.637 487.901 124.317 487.901 123.217 486.861 121.917 485.651 122.067 472.691 123.677 463.351 133.887 458.761 145.567 452.961 160.307 455.731 176.707 457.641 191.917 459.391 205.827 460.801 221.247 454.271 234.217 448.271 246.127 436.301 253.057 423.981 256.967 409.171 261.667 393.471 262.317 378.471 266.247 376.501 266.767 374.551 267.337 372.621 267.977 369.871 268.877 371.051 273.227 373.811 272.317z"></path><path fill="#231F20" d="M338.319 221.248C357.849 216.938 376.589 229.308 396.189 226.748C404.039 225.728 411.919 222.478 416.909 216.108C422.109 209.478 423.209 201.008 422.819 192.808C422.429 184.638 420.959 176.568 420.419 168.408C419.869 160.228 419.849 151.998 420.719 143.838C421.549 136.098 423.249 128.248 426.509 121.148C429.679 114.268 434.409 108.408 439.989 103.338C451.199 93.1581 466.449 85.2781 481.869 85.2481C483.679 85.2481 485.479 85.3581 487.279 85.5881C488.489 85.7381 489.529 84.4481 489.529 83.3381C489.529 81.9981 488.489 81.2381 487.279 81.0881C471.639 79.0881 455.479 85.8181 443.119 94.9981C436.869 99.6381 431.159 105.118 426.749 111.558C422.279 118.088 419.509 125.718 417.849 133.418C414.399 149.468 415.329 165.998 417.299 182.168C418.269 190.158 419.439 198.708 416.949 206.538C414.559 214.078 408.369 219.058 400.929 221.208C392.209 223.728 383.079 222.358 374.379 220.458C364.569 218.308 354.679 215.448 344.529 215.918C342.039 216.038 339.549 216.368 337.109 216.898C334.289 217.528 335.489 221.868 338.319 221.248Z"></path></svg>